PathFileType	4	(X/Y/Z)	./resultDataOpenSim/trcMotMarkerGrf/sub10/qtm-15-06.trc
DataRate	CameraRate	NumFrames	NumMarkers	Units	OrigDataRate	OrigDataStartFrame	OrigNumFrames
250.000000	250.000000	10	24	m	250.000000	260	518
Frame#	Time	L.Toe.Tip			R.Toe.Tip			L.Ankle.Lat			R.Ankle.Lat			L.Ankle.Med			R.Ankle.Med			L.Heel			R.Heel			L.Knee.Lat			R.Knee.Lat			L.Knee.Med			R.Knee.Med			L.Thigh.Upper			R.Thigh.Upper			L.ASIS			R.ASIS			V.Sacral			L.Acromium			R.Acromium			C7			L.Elbow			R.Elbow			L.Wrist.Lat			R.Wrist.Lat
		X1	Y1	Z1	X2	Y2	Z2	X3	Y3	Z3	X4	Y4	Z4	X5	Y5	Z5	X6	Y6	Z6	X7	Y7	Z7	X8	Y8	Z8	X9	Y9	Z9	X10	Y10	Z10	X11	Y11	Z11	X12	Y12	Z12	X13	Y13	Z13	X14	Y14	Z14	X15	Y15	Z15	X16	Y16	Z16	X17	Y17	Z17	X18	Y18	Z18	X19	Y19	Z19	X20	Y20	Z20	X21	Y21	Z21	X22	Y22	Z22	X23	Y23	Z23	X24	Y24	Z24

260	1.036	0.080979189	-0.058609281	-0.15486172	0.6588393	0.11883777	-0.056372998	-0.03493413	-0.011214294	-0.1963794	0.51539601	0.11287749	-0.037011421	-0.018881456	0.014520913	-0.11553848	0.54388661	0.14732248	-0.11624132	-0.11158486	-0.013160044	-0.15931031	0.47999402	0.080335327	-0.092378664	0.21581873	0.27528464	-0.24445223	0.4634555	0.49878514	-0.0023158333	0.22449103	0.26089121	-0.12278299	0.48648654	0.52657204	-0.12676989	0.11559079	0.64567775	-0.32930513	0.11932506	0.67328188	0.058118012	0.17213569	0.74983641	-0.26652227	0.18632544	0.75071874	-0.015194766	-0.029496425	0.78543911	-0.12402248	0.23050681	1.2379328	-0.27809459	0.18402542	1.2513383	-0.0071377591	0.13861669	1.2545389	-0.15599094	0.23067066	1.08646	-0.57761369	0.036985243	1.1220301	0.26658009	0.42193749	1.1781751	-0.71545942	0.097855334	1.2519354	0.47550528
261	1.04	0.080806299	-0.058620537	-0.15468253	0.67348214	0.1197003	-0.058600431	-0.035044856	-0.011090595	-0.19587499	0.53018758	0.11021405	-0.039129939	-0.018954538	0.014453762	-0.11481228	0.5577615	0.14563742	-0.11805815	-0.11180921	-0.012996888	-0.15884231	0.49541814	0.077187455	-0.094392379	0.21636559	0.2747728	-0.24325029	0.4691392	0.49577018	-0.002976488	0.22513364	0.26033671	-0.12168934	0.49215163	0.5235233	-0.12727152	0.11988712	0.64686503	-0.32865446	0.12583671	0.67528694	0.058126244	0.17770965	0.75030489	-0.26639374	0.19336861	0.75252528	-0.015424375	-0.023886338	0.78650339	-0.12359603	0.23606792	1.2399347	-0.2780333	0.18969297	1.2531093	-0.0078085891	0.14448694	1.2561404	-0.15620841	0.23742571	1.0906043	-0.57852024	0.040886429	1.1260879	0.26581216	0.42828668	1.1854329	-0.71491737	0.10040796	1.2588405	0.47345067
262	1.044	0.080637548	-0.058626973	-0.15451733	0.68774263	0.12047051	-0.060753361	-0.035131378	-0.010962462	-0.19544584	0.54482088	0.10751893	-0.041158181	-0.019042019	0.014385003	-0.11417284	0.57132896	0.14396937	-0.11979283	-0.11200117	-0.012840216	-0.1584465	0.51049792	0.074183255	-0.096317256	0.21681119	0.27435812	-0.24202125	0.47476094	0.49257954	-0.0036287552	0.2255494	0.25986835	-0.12057938	0.49777618	0.52021414	-0.12776576	0.1241958	0.6480731	-0.32798738	0.13254339	0.67731927	0.058167422	0.18334255	0.75088854	-0.26630156	0.20051341	0.75436546	-0.015742489	-0.017901659	0.78763352	-0.12314295	0.24163812	1.2420277	-0.27797477	0.19539231	1.254953	-0.0084388206	0.15032744	1.2578285	-0.15635054	0.24408525	1.0946257	-0.57933765	0.04474638	1.1300878	0.26497097	0.43458267	1.1924976	-0.71424935	0.10306079	1.2655733	0.47135736
263	1.048	0.08047716	-0.058632716	-0.15436724	0.70162978	0.1211175	-0.062863472	-0.035197548	-0.010829559	-0.19507507	0.55912683	0.10491379	-0.043032789	-0.019147504	0.014314521	-0.11362637	0.58458268	0.14231519	-0.12143355	-0.11213938	-0.012673129	-0.15808491	0.52521599	0.07130449	-0.098136666	0.21716095	0.27403451	-0.24080852	0.48034503	0.48922959	-0.0041967336	0.22575063	0.2594998	-0.11946813	0.50335534	0.5166654	-0.12825005	0.12849911	0.64926234	-0.32732178	0.1394506	0.67935718	0.058244722	0.18905264	0.75160534	-0.26623837	0.20774979	0.75623352	-0.016140748	-0.01112615	0.78894258	-0.12262126	0.2472309	1.2442126	-0.27792497	0.20111678	1.2568681	-0.0090262458	0.15617086	1.2596135	-0.15649254	0.25063913	1.098553	-0.58002714	0.048668511	1.1340036	0.26408472	0.4408169	1.1993609	-0.71346818	0.10580377	1.2721321	0.4692348
264	1.052	0.080327629	-0.058641214	-0.15423067	0.71513808	0.12164489	-0.064949359	-0.035251601	-0.01070608	-0.19476666	0.57305182	0.10243485	-0.044734692	-0.019281922	0.014243183	-0.11316482	0.59750751	0.14066544	-0.12297624	-0.112243	-0.012512893	-0.15777715	0.53957498	0.068525875	-0.099844617	0.21741785	0.27380436	-0.23965418	0.48593099	0.48576635	-0.004594079	0.22575996	0.25923737	-0.11837251	0.50888905	0.51289684	-0.12872777	0.13279882	0.65043414	-0.32666094	0.14654403	0.68137806	0.058347502	0.19485505	0.75246649	-0.26620301	0.2150672	0.75812272	-0.01660778	-0.0034922231	0.79051355	-0.12200535	0.25285626	1.2464879	-0.27789091	0.20685533	1.2588511	-0.009574812	0.16207457	1.2615098	-0.15675206	0.25709785	1.1023806	-0.58059654	0.052734759	1.1377951	0.26317366	0.44699091	1.2060127	-0.71258578	0.10861624	1.2785074	0.46708478
265	1.056	0.080187686	-0.058653528	-0.15410659	0.72825199	0.12208926	-0.067015908	-0.035295872	-0.010603156	-0.19453384	0.58667776	0.10001149	-0.046302905	-0.019446392	0.014170427	-0.11277696	0.61008591	0.1390127	-0.12442182	-0.1123333	-0.012376701	-0.15754809	0.55359337	0.065820808	-0.10144955	0.21759259	0.27367359	-0.23857673	0.4915198	0.48222998	-0.0048395907	0.2256059	0.25907626	-0.11731571	0.51437914	0.50892579	-0.12921072	0.13709936	0.65159878	-0.32600304	0.15381025	0.68336707	0.058460681	0.20074823	0.75347469	-0.2662001	0.22246237	0.76003016	-0.017129623	0.0044649998	0.79231945	-0.12131556	0.25851686	1.2488496	-0.27787957	0.21259929	1.260903	-0.01008673	0.16806656	1.2635076	-0.15716325	0.26348194	1.1060853	-0.58107663	0.056937701	1.1414388	0.2622472	0.45311374	1.2124459	-0.7116166	0.11148313	1.2846916	0.46491373
266	1.06	0.080054016	-0.058667239	-0.15399615	0.74096064	0.12249985	-0.069067608	-0.035327338	-0.010524207	-0.19438645	0.60007505	0.097577967	-0.047785333	-0.019627896	0.014095278	-0.11246031	0.62230724	0.13735843	-0.12576944	-0.11242121	-0.012269056	-0.15740508	0.56727839	0.063164399	-0.10294482	0.21770603	0.27364358	-0.23757277	0.49704783	0.47860164	-0.0050883151	0.22531615	0.25900364	-0.11632084	0.51981945	0.50477191	-0.12971226	0.14139408	0.65276076	-0.32534773	0.16126081	0.68532587	0.058582031	0.2067081	0.75462512	-0.26623697	0.22993896	0.76195964	-0.017687542	0.012074672	0.79425517	-0.12060086	0.2642136	1.2512938	-0.27789366	0.21835104	1.2630253	-0.010560675	0.17409817	1.2655701	-0.15758645	0.26980891	1.1096558	-0.58149573	0.061205086	1.1449405	0.2613106	0.45918563	1.2186581	-0.71058241	0.11439362	1.2906818	0.4627298
267	1.064	0.079923225	-0.058677559	-0.15390093	0.75327185	0.12290999	-0.071115098	-0.035348652	-0.010464325	-0.19431492	0.61318583	0.095174262	-0.049185111	-0.019808728	0.014020274	-0.11221494	0.63416706	0.13570941	-0.12701199	-0.11250973	-0.012185849	-0.15733895	0.58061089	0.060542892	-0.10429531	0.21778059	0.27371231	-0.23663821	0.50242377	0.47481328	-0.005518877	0.22491572	0.25900648	-0.11540223	0.52519603	0.50046466	-0.1302359	0.14565768	0.65391757	-0.32469779	0.16892547	0.68726983	0.058719109	0.21271191	0.75591221	-0.26631359	0.23750038	0.76391801	-0.018261147	0.019130106	0.79623794	-0.11989302	0.2699502	1.2538186	-0.27792788	0.22412497	1.265216	-0.01099417	0.18008649	1.2676837	-0.15782067	0.27608827	1.1130957	-0.5818722	0.065467601	1.1483241	0.26036526	0.46518376	1.2246538	-0.70951355	0.11732965	1.2964837	0.46053542
268	1.068	0.079792303	-0.058681472	-0.15382046	0.76520811	0.1233223	-0.073156945	-0.035371306	-0.010413978	-0.19428858	0.6258922	0.092898801	-0.050468193	-0.019978065	0.013952179	-0.11203258	0.64565356	0.13406542	-0.12813942	-0.11259754	-0.01211922	-0.15733209	0.59356016	0.05795976	-0.10547041	0.21782275	0.27388037	-0.23578249	0.5075983	0.47083634	-0.0061894957	0.22443088	0.25907842	-0.11456193	0.5304933	0.4960452	-0.13077248	0.14985909	0.65506678	-0.32405522	0.17681554	0.68921381	0.058868816	0.21876303	0.75733155	-0.26641867	0.24514542	0.76590788	-0.01883453	0.025843657	0.79824861	-0.11918461	0.27573119	1.2564219	-0.27797087	0.22993874	1.2674711	-0.011382982	0.18601853	1.2698855	-0.15783684	0.28232172	1.1164122	-0.58221605	0.069698961	1.1516113	0.25940565	0.47106807	1.230443	-0.70843766	0.12027542	1.302108	0.45833145
269	1.072	0.079659785	-0.058680287	-0.15375075	0.7767765	0.12371804	-0.075154642	-0.035405082	-0.010364607	-0.19427713	0.6381576	0.09079205	-0.051614767	-0.020132492	0.013898593	-0.11189921	0.65673823	0.13241906	-0.12914489	-0.11268062	-0.01205848	-0.15736723	0.60609939	0.055429643	-0.10646918	0.21779129	0.27415457	-0.23503508	0.51259088	0.46673085	-0.0070208148	0.2238871	0.259221	-0.11379538	0.53569447	0.49155737	-0.13131134	0.15401973	0.65621985	-0.32341066	0.18489841	0.69116031	0.059007288	0.2248851	0.758874	-0.26653864	0.25287064	0.76792666	-0.019397029	0.032468797	0.80030611	-0.11844646	0.28155817	1.2590988	-0.27801295	0.23579678	1.2697896	-0.011722509	0.19197996	1.2722132	-0.15782909	0.28850952	1.1196094	-0.5825368	0.073912597	1.1548083	0.25842742	0.47683124	1.2360278	-0.70735696	0.12325222	1.3075538	0.45612775
